# xmcd
#
# Track frame offsets:
#	182
#	23705
#	40880
#	56710
#	73057
#	91205
#	107780
#	125632
#	144232
#	161932
#	178140
#	194332
#
# Disc length: 2861 seconds
#
# Revision: 3
# Processed by: cddbd v1.5.2PL0 Copyright (c) Steve Scherf et al.
# Submitted via: EasyCDDAExtractor 15.3.0.1
#
DISCID=ae0b2b0c
DTITLE=Emmanuel - Los Grandes Exitos De Emmanuel
DYEAR=1983
DGENRE=Latin
TTITLE0=Todo Se Derrumbo Dentro De Mi
TTITLE1=Tu Y Yo
TTITLE2=Enredadito Por Tu Cintura
TTITLE3=Con Olor A Hierba
TTITLE4=El Dia Que Puedas
TTITLE5=Al Final
TTITLE6=Quiero Dormir Cansado
TTITLE7=Amor Sin Final
TTITLE8=Esa Triste Guitarra
TTITLE9=Sin Caballero No Hay Dama
TTITLE10=Señora Hora Por Hora
TTITLE11=Esto Me Duele Mas Que A Ti
EXTD=From: The Saint
EXTT0=
EXTT1=
EXTT2=
EXTT3=
EXTT4=
EXTT5=
EXTT6=
EXTT7=
EXTT8=
EXTT9=
EXTT10=
EXTT11=
PLAYORDER=
